<svg xmlns="http://www.w3.org/2000/svg" viewBox="0 0 12 10" width="12" height="10" shape-rendering="crispEdges" aria-hidden="true" focusable="false">
<rect x="1" y="0" width="1" height="1" fill="#54331a"/>
<rect x="2" y="0" width="1" height="1" fill="#54331a"/>
<rect x="3" y="0" width="1" height="1" fill="#54331a"/>
<rect x="4" y="0" width="1" height="1" fill="#54331a"/>
<rect x="5" y="0" width="1" height="1" fill="#e3a93a"/>
<rect x="6" y="0" width="1" height="1" fill="#e3a93a"/>
<rect x="7" y="0" width="1" height="1" fill="#54331a"/>
<rect x="8" y="0" width="1" height="1" fill="#54331a"/>
<rect x="9" y="0" width="1" height="1" fill="#54331a"/>
<rect x="10" y="0" width="1" height="1" fill="#54331a"/>
<rect x="0" y="1" width="1" height="1" fill="#54331a"/>
<rect x="1" y="1" width="1" height="1" fill="#c98e4f"/>
<rect x="2" y="1" width="1" height="1" fill="#c98e4f"/>
<rect x="3" y="1" width="1" height="1" fill="#c98e4f"/>
<rect x="4" y="1" width="1" height="1" fill="#c98e4f"/>
<rect x="5" y="1" width="1" height="1" fill="#e3a93a"/>
<rect x="6" y="1" width="1" height="1" fill="#e3a93a"/>
<rect x="7" y="1" width="1" height="1" fill="#c98e4f"/>
<rect x="8" y="1" width="1" height="1" fill="#c98e4f"/>
<rect x="9" y="1" width="1" height="1" fill="#c98e4f"/>
<rect x="10" y="1" width="1" height="1" fill="#c98e4f"/>
<rect x="11" y="1" width="1" height="1" fill="#54331a"/>
<rect x="0" y="2" width="1" height="1" fill="#54331a"/>
<rect x="1" y="2" width="1" height="1" fill="#c98e4f"/>
<rect x="2" y="2" width="1" height="1" fill="#c98e4f"/>
<rect x="3" y="2" width="1" height="1" fill="#c98e4f"/>
<rect x="4" y="2" width="1" height="1" fill="#a86f35"/>
<rect x="5" y="2" width="1" height="1" fill="#e3a93a"/>
<rect x="6" y="2" width="1" height="1" fill="#e3a93a"/>
<rect x="7" y="2" width="1" height="1" fill="#a86f35"/>
<rect x="8" y="2" width="1" height="1" fill="#c98e4f"/>
<rect x="9" y="2" width="1" height="1" fill="#c98e4f"/>
<rect x="10" y="2" width="1" height="1" fill="#c98e4f"/>
<rect x="11" y="2" width="1" height="1" fill="#54331a"/>
<rect x="0" y="3" width="1" height="1" fill="#54331a"/>
<rect x="1" y="3" width="1" height="1" fill="#e3a93a"/>
<rect x="2" y="3" width="1" height="1" fill="#e3a93a"/>
<rect x="3" y="3" width="1" height="1" fill="#e3a93a"/>
<rect x="4" y="3" width="1" height="1" fill="#e3a93a"/>
<rect x="5" y="3" width="1" height="1" fill="#e3a93a"/>
<rect x="6" y="3" width="1" height="1" fill="#e3a93a"/>
<rect x="7" y="3" width="1" height="1" fill="#e3a93a"/>
<rect x="8" y="3" width="1" height="1" fill="#e3a93a"/>
<rect x="9" y="3" width="1" height="1" fill="#e3a93a"/>
<rect x="10" y="3" width="1" height="1" fill="#e3a93a"/>
<rect x="11" y="3" width="1" height="1" fill="#54331a"/>
<rect x="0" y="4" width="1" height="1" fill="#54331a"/>
<rect x="1" y="4" width="1" height="1" fill="#e3a93a"/>
<rect x="2" y="4" width="1" height="1" fill="#e3a93a"/>
<rect x="3" y="4" width="1" height="1" fill="#e3a93a"/>
<rect x="4" y="4" width="1" height="1" fill="#e3a93a"/>
<rect x="5" y="4" width="1" height="1" fill="#b9852e"/>
<rect x="6" y="4" width="1" height="1" fill="#b9852e"/>
<rect x="7" y="4" width="1" height="1" fill="#e3a93a"/>
<rect x="8" y="4" width="1" height="1" fill="#e3a93a"/>
<rect x="9" y="4" width="1" height="1" fill="#e3a93a"/>
<rect x="10" y="4" width="1" height="1" fill="#e3a93a"/>
<rect x="11" y="4" width="1" height="1" fill="#54331a"/>
<rect x="0" y="5" width="1" height="1" fill="#54331a"/>
<rect x="1" y="5" width="1" height="1" fill="#c98e4f"/>
<rect x="2" y="5" width="1" height="1" fill="#c98e4f"/>
<rect x="3" y="5" width="1" height="1" fill="#c98e4f"/>
<rect x="4" y="5" width="1" height="1" fill="#a86f35"/>
<rect x="5" y="5" width="1" height="1" fill="#e3a93a"/>
<rect x="6" y="5" width="1" height="1" fill="#e3a93a"/>
<rect x="7" y="5" width="1" height="1" fill="#a86f35"/>
<rect x="8" y="5" width="1" height="1" fill="#c98e4f"/>
<rect x="9" y="5" width="1" height="1" fill="#c98e4f"/>
<rect x="10" y="5" width="1" height="1" fill="#c98e4f"/>
<rect x="11" y="5" width="1" height="1" fill="#54331a"/>
<rect x="0" y="6" width="1" height="1" fill="#54331a"/>
<rect x="1" y="6" width="1" height="1" fill="#c98e4f"/>
<rect x="2" y="6" width="1" height="1" fill="#c98e4f"/>
<rect x="3" y="6" width="1" height="1" fill="#c98e4f"/>
<rect x="4" y="6" width="1" height="1" fill="#c98e4f"/>
<rect x="5" y="6" width="1" height="1" fill="#e3a93a"/>
<rect x="6" y="6" width="1" height="1" fill="#e3a93a"/>
<rect x="7" y="6" width="1" height="1" fill="#c98e4f"/>
<rect x="8" y="6" width="1" height="1" fill="#c98e4f"/>
<rect x="9" y="6" width="1" height="1" fill="#c98e4f"/>
<rect x="10" y="6" width="1" height="1" fill="#c98e4f"/>
<rect x="11" y="6" width="1" height="1" fill="#54331a"/>
<rect x="0" y="7" width="1" height="1" fill="#54331a"/>
<rect x="1" y="7" width="1" height="1" fill="#a86f35"/>
<rect x="2" y="7" width="1" height="1" fill="#a86f35"/>
<rect x="3" y="7" width="1" height="1" fill="#c98e4f"/>
<rect x="4" y="7" width="1" height="1" fill="#a86f35"/>
<rect x="5" y="7" width="1" height="1" fill="#e3a93a"/>
<rect x="6" y="7" width="1" height="1" fill="#e3a93a"/>
<rect x="7" y="7" width="1" height="1" fill="#a86f35"/>
<rect x="8" y="7" width="1" height="1" fill="#c98e4f"/>
<rect x="9" y="7" width="1" height="1" fill="#a86f35"/>
<rect x="10" y="7" width="1" height="1" fill="#a86f35"/>
<rect x="11" y="7" width="1" height="1" fill="#54331a"/>
<rect x="0" y="8" width="1" height="1" fill="#54331a"/>
<rect x="1" y="8" width="1" height="1" fill="#a86f35"/>
<rect x="2" y="8" width="1" height="1" fill="#a86f35"/>
<rect x="3" y="8" width="1" height="1" fill="#a86f35"/>
<rect x="4" y="8" width="1" height="1" fill="#a86f35"/>
<rect x="5" y="8" width="1" height="1" fill="#e3a93a"/>
<rect x="6" y="8" width="1" height="1" fill="#e3a93a"/>
<rect x="7" y="8" width="1" height="1" fill="#a86f35"/>
<rect x="8" y="8" width="1" height="1" fill="#a86f35"/>
<rect x="9" y="8" width="1" height="1" fill="#a86f35"/>
<rect x="10" y="8" width="1" height="1" fill="#a86f35"/>
<rect x="11" y="8" width="1" height="1" fill="#54331a"/>
<rect x="1" y="9" width="1" height="1" fill="#54331a"/>
<rect x="2" y="9" width="1" height="1" fill="#54331a"/>
<rect x="3" y="9" width="1" height="1" fill="#54331a"/>
<rect x="4" y="9" width="1" height="1" fill="#54331a"/>
<rect x="5" y="9" width="1" height="1" fill="#54331a"/>
<rect x="6" y="9" width="1" height="1" fill="#54331a"/>
<rect x="7" y="9" width="1" height="1" fill="#54331a"/>
<rect x="8" y="9" width="1" height="1" fill="#54331a"/>
<rect x="9" y="9" width="1" height="1" fill="#54331a"/>
<rect x="10" y="9" width="1" height="1" fill="#54331a"/>
</svg>
